# xmcd
#
# Track frame offsets:
#	182
#	26702
#	52790
#	74177
#	95367
#	117722
#	144332
#	164035
#	188695
#	209407
#	231362
#	253182
#	281587
#
# Disc length: 4502 seconds
# Revision: 41
# Processed by: cddbd v1.5.2PL0 Copyright (c) Steve Scherf et al.
# Submitted via: dBpowerAMP V12.0
#
DISCID=cb11940d
DTITLE=Santana - Supernatural [dBP-LITE-GB-FLAC+3]
DYEAR=1999
DGENRE=Pop
TTITLE0=(Da Le) Yaleo
TTITLE1=Love Of My Life [ft. Dave Matthews]
TTITLE2=Put Your Lights On [ft. Everlast]
TTITLE3=Africa Bamba
TTITLE4=Smooth [ft. Rob Thomas]
TTITLE5=Do You Like The Way [ft. Lauryn Hill and Cee-Lo]
TTITLE6=Maria Maria [pr. by Wyclef Jean and Jerry "Wonder" Duplessis]
TTITLE7=Migra
TTITLE8=Corazon Espinado [ft. Maná]
TTITLE9=Wishing It Was [ft. Eagle-Eye Cherry]
TTITLE10=El Farol
TTITLE11=Primavera
TTITLE12=Day Of Celebration [ft. Eric Clapton]
EXTD=
EXTT0=
EXTT1=
EXTT2=
EXTT3=
EXTT4=
EXTT5=
EXTT6=
EXTT7=
EXTT8=
EXTT9=
EXTT10=
EXTT11=
EXTT12=
PLAYORDER=
